<svg width="28" height="28" viewBox="0 0 28 28" fill="none" xmlns="http://www.w3.org/2000/svg">
<path d="M11.6668 9.33329V8.16663M11.6668 14.5833V13.4166M11.6668 19.8333V18.6666M6.06683 4.66663H21.9335C23.2403 4.66663 23.8937 4.66663 24.3928 4.92094C24.8319 5.14465 25.1888 5.5016 25.4125 5.94065C25.6668 6.43978 25.6668 7.09317 25.6668 8.39996V9.91663C23.4117 9.91663 21.5835 11.7448 21.5835 14C21.5835 16.2551 23.4117 18.0833 25.6668 18.0833V19.6C25.6668 20.9067 25.6668 21.5601 25.4125 22.0593C25.1888 22.4983 24.8319 22.8553 24.3928 23.079C23.8937 23.3333 23.2403 23.3333 21.9335 23.3333H6.06683C4.76004 23.3333 4.10665 23.3333 3.60752 23.079C3.16847 22.8553 2.81152 22.4983 2.58781 22.0593C2.3335 21.5601 2.3335 20.9067 2.3335 19.6V18.0833C4.58866 18.0833 6.41683 16.2551 6.41683 14C6.41683 11.7448 4.58866 9.91663 2.3335 9.91663V8.39996C2.3335 7.09317 2.3335 6.43978 2.58781 5.94065C2.81152 5.5016 3.16847 5.14465 3.60752 4.92094C4.10665 4.66663 4.76004 4.66663 6.06683 4.66663Z" stroke="#FF000F" stroke-width="2" stroke-linecap="round" stroke-linejoin="round"/>
</svg>
