<svg width="40" height="40" viewBox="0 0 40 40" fill="none" xmlns="http://www.w3.org/2000/svg">
<rect x="0.5" y="0.5" width="39" height="39" rx="19.5" fill="#E30613"/>
<rect x="0.5" y="0.5" width="39" height="39" rx="19.5" stroke="#F9F9FF"/>
<path d="M20 28.0002H29M11 28.0002H12.6745C13.1637 28.0002 13.4083 28.0002 13.6385 27.945C13.8426 27.896 14.0377 27.8152 14.2166 27.7055C14.4184 27.5818 14.5914 27.4089 14.9373 27.063L27.5 14.5002C28.3285 13.6718 28.3285 12.3287 27.5 11.5002C26.6716 10.6718 25.3285 10.6718 24.5 11.5002L11.9373 24.063C11.5914 24.4089 11.4184 24.5818 11.2947 24.7837C11.1851 24.9626 11.1043 25.1577 11.0553 25.3618C11 25.5919 11 25.8365 11 26.3257V28.0002Z" stroke="white" stroke-width="2" stroke-linecap="round" stroke-linejoin="round"/>
</svg>
