<svg width="18" height="18" viewBox="0 0 18 18" fill="none" xmlns="http://www.w3.org/2000/svg">
<path d="M10.7595 4.60148H15.7839C16.1566 4.60148 16.343 4.60148 16.452 4.67985C16.5471 4.74823 16.609 4.85347 16.6226 4.96981C16.6382 5.10315 16.5477 5.26607 16.3667 5.59191L15.142 7.79624C15.0764 7.91441 15.0436 7.97349 15.0307 8.03606C15.0193 8.09144 15.0193 8.14856 15.0307 8.20394C15.0436 8.26651 15.0764 8.32559 15.142 8.44376L16.3667 10.6481C16.5477 10.9739 16.6382 11.1369 16.6226 11.2702C16.609 11.3865 16.5471 11.4918 16.452 11.5601C16.343 11.6385 16.1566 11.6385 15.7839 11.6385H9.45394C8.98723 11.6385 8.75387 11.6385 8.57561 11.5477C8.41881 11.4678 8.29133 11.3403 8.21143 11.1835C8.12061 11.0053 8.1206 10.7719 8.1206 10.3052V8.12M5.04191 16.9165L1.52339 2.84245M2.84287 8.12004H9.42617C9.89288 8.12004 10.1262 8.12004 10.3045 8.02922C10.4613 7.94932 10.5888 7.82184 10.6687 7.66504C10.7595 7.48678 10.7595 7.25342 10.7595 6.78671V2.41634C10.7595 1.94963 10.7595 1.71628 10.6687 1.53802C10.5888 1.38121 10.4613 1.25373 10.3045 1.17384C10.1262 1.08301 9.89288 1.08301 9.42617 1.08301H2.79126C2.20916 1.08301 1.91811 1.08301 1.71904 1.20362C1.54457 1.30933 1.41493 1.47537 1.35469 1.67028C1.28596 1.89265 1.35656 2.17501 1.49774 2.73973L2.84287 8.12004Z" stroke="#E30613" stroke-width="1.5" stroke-linecap="round" stroke-linejoin="round"/>
</svg>
