<svg width="52" height="52" viewBox="0 0 52 52" fill="none" xmlns="http://www.w3.org/2000/svg">
<rect x="0.5" y="0.5" width="51" height="51" rx="15.5" fill="white"/>
<rect x="0.5" y="0.5" width="51" height="51" rx="15.5" stroke="#E1E1E1"/>
<path d="M29.0505 23H19.5C18.1193 23 17 21.8807 17 20.5C17 19.1193 18.1193 18 19.5 18H29.0505M22.9495 34H32.5C33.8807 34 35 32.8807 35 31.5C35 30.1193 33.8807 29 32.5 29H22.9495M17 31.5C17 33.433 18.567 35 20.5 35C22.433 35 24 33.433 24 31.5C24 29.567 22.433 28 20.5 28C18.567 28 17 29.567 17 31.5ZM35 20.5C35 22.433 33.433 24 31.5 24C29.567 24 28 22.433 28 20.5C28 18.567 29.567 17 31.5 17C33.433 17 35 18.567 35 20.5Z" stroke="#070707" stroke-opacity="0.7" stroke-width="1.5" stroke-linecap="round" stroke-linejoin="round"/>
</svg>
