<svg width="20" height="20" viewBox="0 0 20 20" fill="none" xmlns="http://www.w3.org/2000/svg">
<path d="M19.9442 5.8767C19.8962 4.81185 19.7241 4.08327 19.4801 3.44676C19.224 2.79023 18.884 2.22978 18.3279 1.67734C17.7718 1.1249 17.2156 0.776621 16.5595 0.52442C15.9234 0.276221 15.1952 0.108086 14.131 0.060048C13.0628 0.0120096 12.7227 0 10.0102 0C7.29366 0 6.9536 0.0120096 5.88938 0.060048C4.82517 0.108086 4.09702 0.280224 3.4609 0.52442C2.80076 0.780625 2.24065 1.1209 1.68854 1.67734C1.13643 2.23379 0.788362 2.79023 0.536312 3.44676C0.292263 4.08327 0.120229 4.81185 0.072219 5.8767C0.0242094 6.94556 0.012207 7.28583 0.012207 10C0.012207 12.7182 0.0242094 13.0584 0.072219 14.1233C0.120229 15.1882 0.292263 15.9167 0.536312 16.5532C0.792363 17.2098 1.13243 17.7702 1.68854 18.3227C2.24065 18.8791 2.80076 19.2234 3.4569 19.4756C4.09302 19.7238 4.82117 19.8919 5.88538 19.94C6.9536 19.988 7.29366 20 10.0062 20C12.7227 20 13.0628 19.988 14.127 19.94C15.1912 19.8919 15.9194 19.7198 16.5555 19.4756C17.2116 19.2194 17.7718 18.8791 18.3239 18.3227C18.876 17.7662 19.224 17.2098 19.4761 16.5532C19.7241 15.9167 19.8922 15.1882 19.9402 14.1233C19.9882 13.0544 20.0002 12.7142 20.0002 10C20.0002 7.28583 19.9922 6.94155 19.9442 5.8767ZM18.1478 14.0432C18.1038 15.02 17.9398 15.5524 17.8038 15.9007C17.6237 16.3651 17.4037 16.7014 17.0516 17.0536C16.6995 17.4059 16.3675 17.6181 15.8994 17.8062C15.5473 17.9424 15.0152 18.1065 14.043 18.1505C12.9908 18.1986 12.6747 18.2106 10.0022 18.2106C7.32967 18.2106 7.01361 18.1986 5.9614 18.1505C4.9852 18.1065 4.45309 17.9424 4.10503 17.8062C3.64093 17.6261 3.30487 17.4059 2.9528 17.0536C2.60072 16.7014 2.38868 16.3691 2.20064 15.9007C2.06462 15.5484 1.90058 15.016 1.85658 14.0432C1.80857 12.9904 1.79656 12.6741 1.79656 10C1.79656 7.32586 1.80857 7.00961 1.85658 5.95677C1.90058 4.97998 2.06462 4.44756 2.20064 4.09928C2.38068 3.63491 2.60072 3.29864 2.9528 2.94636C3.30487 2.59408 3.63693 2.38191 4.10503 2.19376C4.4571 2.05765 4.9892 1.89351 5.9614 1.84948C7.01361 1.80144 7.32967 1.78943 10.0022 1.78943C12.6747 1.78943 12.9908 1.80144 14.043 1.84948C15.0192 1.89351 15.5513 2.05765 15.8994 2.19376C16.3635 2.3739 16.6995 2.59408 17.0516 2.94636C17.4037 3.29864 17.6157 3.63091 17.8038 4.09928C17.9398 4.45156 18.1038 4.98399 18.1478 5.95677C18.1958 7.00961 18.2078 7.32586 18.2078 10C18.2078 12.6741 18.1918 12.9904 18.1478 14.0432Z" fill="black"/>
<path d="M10.0023 4.86035C7.16169 4.86035 4.86523 7.16219 4.86523 10.0005C4.86523 12.8427 7.16569 15.1406 10.0023 15.1406C12.8388 15.1406 15.1393 12.8347 15.1393 10.0005C15.1393 7.15819 12.8428 4.86035 10.0023 4.86035ZM10.0023 13.3351C8.16189 13.3351 6.6696 11.8419 6.6696 10.0005C6.6696 8.15899 8.16189 6.6658 10.0023 6.6658C11.8426 6.6658 13.3349 8.15899 13.3349 10.0005C13.3349 11.8419 11.8426 13.3351 10.0023 13.3351Z" fill="black"/>
<path d="M15.3394 5.86091C16.0023 5.86091 16.5396 5.32322 16.5396 4.65995C16.5396 3.99667 16.0023 3.45898 15.3394 3.45898C14.6765 3.45898 14.1392 3.99667 14.1392 4.65995C14.1392 5.32322 14.6765 5.86091 15.3394 5.86091Z" fill="black"/>
<path d="M0 10C0 12.7182 0.0120024 13.0584 0.060012 14.1233C0.108022 15.1882 0.280056 15.9167 0.524105 16.5532C0.780156 17.2098 1.12022 17.7702 1.67634 18.3227C2.22845 18.8751 2.78856 19.2234 3.44469 19.4756C4.08082 19.7238 4.80896 19.8919 5.87318 19.94C6.94139 19.988 7.28146 20 9.994 20C12.7105 20 13.0506 19.988 14.1148 19.94C15.179 19.8919 15.9072 19.7198 16.5433 19.4756C17.1994 19.2194 17.7596 18.8791 18.3117 18.3227C18.8638 17.7702 19.2118 17.2098 19.4639 16.5532C19.7119 15.9167 19.88 15.1882 19.928 14.1233C19.976 13.0544 19.988 12.7142 19.988 10C19.988 7.28183 19.976 6.94155 19.928 5.8767C19.88 4.81185 19.7079 4.08327 19.4639 3.44676C19.2078 2.79023 18.8678 2.22978 18.3117 1.67734C17.7636 1.1209 17.2034 0.776621 16.5473 0.52442C15.9112 0.276221 15.183 0.108086 14.1188 0.060048C13.0506 0.0120096 12.7105 0 9.998 0C7.28146 0 6.94139 0.0120096 5.87718 0.060048C4.81296 0.108086 4.08482 0.280224 3.44869 0.52442C2.79256 0.780625 2.23245 1.1209 1.68034 1.67734C1.12823 2.23379 0.780156 2.79023 0.528106 3.44676C0.280056 4.08327 0.108022 4.81185 0.060012 5.8767C0.0120024 6.94155 0 7.28183 0 10ZM1.80436 10C1.80436 7.32986 1.81636 7.00961 1.86437 5.95677C1.90838 4.97998 2.07241 4.44756 2.20844 4.09928C2.38848 3.63491 2.60852 3.29864 2.96059 2.94636C3.31266 2.59408 3.64473 2.38191 4.11282 2.19376C4.46489 2.05765 4.997 1.89351 5.96919 1.84948C7.0214 1.80144 7.33747 1.78943 10.01 1.78943C12.6825 1.78943 12.9986 1.80144 14.0508 1.84948C15.027 1.89351 15.5591 2.05765 15.9072 2.19376C16.3713 2.3739 16.7073 2.59408 17.0594 2.94636C17.4115 3.29864 17.6235 3.63091 17.8116 4.09928C17.9476 4.45156 18.1116 4.98399 18.1556 5.95677C18.2036 7.00961 18.2156 7.32586 18.2156 10C18.2156 12.6741 18.2036 12.9904 18.1556 14.0432C18.1116 15.02 17.9476 15.5524 17.8116 15.9007C17.6315 16.3651 17.4115 16.7014 17.0594 17.0536C16.7073 17.4059 16.3753 17.6181 15.9072 17.8062C15.5551 17.9424 15.023 18.1065 14.0508 18.1505C12.9986 18.1986 12.6825 18.2106 10.01 18.2106C7.33747 18.2106 7.0214 18.1986 5.96919 18.1505C4.993 18.1065 4.46089 17.9424 4.11282 17.8062C3.64873 17.6261 3.31266 17.4059 2.96059 17.0536C2.60852 16.7014 2.39648 16.3691 2.20844 15.9007C2.07241 15.5484 1.90838 15.016 1.86437 14.0432C1.81236 12.9904 1.80436 12.6701 1.80436 10Z" fill="black"/>
</svg>
