<svg width="39" height="24" viewBox="0 0 39 24" fill="none" xmlns="http://www.w3.org/2000/svg">
<path d="M24.7731 2.56561H14.2274V21.4344H24.7731V2.56561Z" fill="#FF5F00"/>
<path d="M14.897 12C14.8954 10.1828 15.3089 8.38904 16.1065 6.75451C16.904 5.11998 18.0646 3.68753 19.5003 2.56561C17.7223 1.17415 15.5871 0.308826 13.3385 0.0685353C11.09 -0.171756 8.81887 0.222674 6.78483 1.20676C4.75079 2.19084 3.03585 3.72488 1.83605 5.63351C0.636254 7.54213 0 9.74835 0 12C0 14.2516 0.636254 16.4579 1.83605 18.3665C3.03585 20.2751 4.75079 21.8092 6.78483 22.7932C8.81887 23.7773 11.09 24.1718 13.3385 23.9315C15.5871 23.6912 17.7223 22.8258 19.5003 21.4344C18.0646 20.3125 16.904 18.88 16.1065 17.2455C15.309 15.611 14.8954 13.8172 14.897 12Z" fill="#EB001B"/>
<path d="M39 12C39.0001 14.2516 38.3639 16.4578 37.1642 18.3665C35.9644 20.2751 34.2495 21.8091 32.2155 22.7932C30.1816 23.7773 27.9105 24.1718 25.662 23.9315C23.4135 23.6912 21.2782 22.8259 19.5003 21.4344C20.9348 20.3113 22.0944 18.8787 22.8918 17.2444C23.6892 15.6101 24.1035 13.8169 24.1035 12C24.1035 10.1831 23.6892 8.38988 22.8918 6.75561C22.0944 5.12134 20.9348 3.68867 19.5003 2.56561C21.2782 1.17415 23.4135 0.30882 25.662 0.0685322C27.9105 -0.171756 30.1816 0.222691 32.2155 1.20679C34.2495 2.19088 35.9644 3.72491 37.1642 5.63354C38.3639 7.54217 39.0001 9.74838 39 12Z" fill="#F79E1B"/>
<path d="M37.8502 19.4359V19.0496H38.0066V18.9709H37.6082V19.0496H37.7647V19.4359H37.8502ZM38.6237 19.4359V18.9701H38.5015L38.3611 19.2905L38.2206 18.9701H38.0984V19.4359H38.1846V19.0846L38.3163 19.3875H38.4058L38.5375 19.0838V19.4359H38.6237Z" fill="#F79E1B"/>
</svg>
