<svg width="28" height="28" viewBox="0 0 28 28" fill="none" xmlns="http://www.w3.org/2000/svg">
<path d="M6.44 3.08004L4.62 5.50671C4.25952 5.98735 4.07928 6.22767 4.08346 6.42883C4.0871 6.60389 4.16918 6.76805 4.30704 6.876C4.46546 7.00004 4.76586 7.00004 5.36667 7.00004H22.6333C23.2341 7.00004 23.5345 7.00004 23.693 6.876C23.8308 6.76805 23.9129 6.60389 23.9165 6.42883C23.9207 6.22767 23.7405 5.98735 23.38 5.50671L21.56 3.08004M6.44 3.08004C6.64533 2.80626 6.748 2.66938 6.87811 2.57065C6.99335 2.4832 7.12385 2.41795 7.26295 2.37823C7.42 2.33337 7.59111 2.33337 7.93333 2.33337H20.0667C20.4089 2.33337 20.58 2.33337 20.737 2.37823C20.8761 2.41795 21.0066 2.4832 21.1219 2.57065C21.252 2.66938 21.3547 2.80626 21.56 3.08004M6.44 3.08004L4.24667 6.00448C3.96963 6.37387 3.83111 6.55856 3.73275 6.76195C3.64547 6.94243 3.58181 7.13341 3.54335 7.33016C3.5 7.55189 3.5 7.78275 3.5 8.24448L3.5 21.9334C3.5 23.2402 3.5 23.8936 3.75432 24.3927C3.97802 24.8317 4.33498 25.1887 4.77402 25.4124C5.27315 25.6667 5.92654 25.6667 7.23333 25.6667L20.7667 25.6667C22.0735 25.6667 22.7268 25.6667 23.226 25.4124C23.665 25.1887 24.022 24.8317 24.2457 24.3927C24.5 23.8936 24.5 23.2402 24.5 21.9334V8.24449C24.5 7.78276 24.5 7.55189 24.4567 7.33016C24.4182 7.13341 24.3545 6.94243 24.2673 6.76195C24.1689 6.55856 24.0304 6.37387 23.7533 6.00449L21.56 3.08004M18.6667 11.6667C18.6667 12.9044 18.175 14.0914 17.2998 14.9665C16.4247 15.8417 15.2377 16.3334 14 16.3334C12.7623 16.3334 11.5753 15.8417 10.7002 14.9665C9.825 14.0914 9.33333 12.9044 9.33333 11.6667" stroke="#FF000F" stroke-width="2" stroke-linecap="round" stroke-linejoin="round"/>
</svg>
