<svg width="28" height="28" viewBox="0 0 28 28" fill="none" xmlns="http://www.w3.org/2000/svg">
<path d="M23.3332 24.5C23.3332 22.8718 23.3332 22.0578 23.1322 21.3953C22.6798 19.9039 21.5126 18.7367 20.0212 18.2843C19.3587 18.0833 18.5447 18.0833 16.9165 18.0833H11.0832C9.45501 18.0833 8.64093 18.0833 7.9785 18.2843C6.48703 18.7367 5.31988 19.9039 4.86745 21.3953C4.6665 22.0578 4.6665 22.8718 4.6665 24.5M19.2498 8.75C19.2498 11.6495 16.8993 14 13.9998 14C11.1003 14 8.74984 11.6495 8.74984 8.75C8.74984 5.8505 11.1003 3.5 13.9998 3.5C16.8993 3.5 19.2498 5.8505 19.2498 8.75Z" stroke="#FF000F" stroke-width="2" stroke-linecap="round" stroke-linejoin="round"/>
</svg>
