<svg width="20" height="20" viewBox="0 0 20 20" fill="none" xmlns="http://www.w3.org/2000/svg">
<path d="M13.0262 6.35931C12.6962 6.0293 12.5311 5.86429 12.4693 5.67402C12.4149 5.50665 12.4149 5.32636 12.4693 5.15899C12.5311 4.96872 12.6962 4.80371 13.0262 4.47369L15.3915 2.10838C14.7638 1.82452 14.067 1.6665 13.3334 1.6665C10.5719 1.6665 8.33336 3.90508 8.33336 6.6665C8.33336 7.0757 8.38251 7.47342 8.47524 7.85408C8.57454 8.2617 8.62419 8.46552 8.61538 8.59428C8.60615 8.72908 8.58605 8.8008 8.52389 8.92077C8.46451 9.03535 8.35074 9.14912 8.12321 9.37665L2.91669 14.5832C2.22634 15.2735 2.22634 16.3928 2.91669 17.0832C3.60705 17.7735 4.72634 17.7735 5.41669 17.0832L10.6232 11.8767C10.8507 11.6491 10.9645 11.5354 11.0791 11.476C11.1991 11.4138 11.2708 11.3937 11.4056 11.3845C11.5343 11.3757 11.7382 11.4253 12.1458 11.5246C12.5264 11.6173 12.9242 11.6665 13.3334 11.6665C16.0948 11.6665 18.3334 9.42793 18.3334 6.6665C18.3334 5.93283 18.1753 5.23606 17.8915 4.60838L15.5262 6.97369C15.1962 7.30371 15.0311 7.46872 14.8409 7.53054C14.6735 7.58492 14.4932 7.58492 14.3258 7.53054C14.1356 7.46872 13.9706 7.30371 13.6405 6.97369L13.0262 6.35931Z" stroke="#E30613" stroke-width="1.2" stroke-linecap="round" stroke-linejoin="round"/>
</svg>
